<svg xmlns="http://www.w3.org/2000/svg" width="512" height="512" viewBox="0 0 512 512">
  <defs>
    <linearGradient id="background" x1="72" y1="64" x2="448" y2="456" gradientUnits="userSpaceOnUse">
      <stop stop-color="#6D5DFB"/>
      <stop offset="1" stop-color="#1B153D"/>
    </linearGradient>
    <linearGradient id="lens" x1="212" y1="202" x2="306" y2="310" gradientUnits="userSpaceOnUse">
      <stop stop-color="#A6F0FF"/>
      <stop offset="1" stop-color="#5B7CFF"/>
    </linearGradient>
  </defs>
  <rect x="24" y="24" width="464" height="464" rx="108" fill="url(#background)"/>
  <path d="M116 206v-54c0-20 16-36 36-36h54M306 116h54c20 0 36 16 36 36v54M396 306v54c0 20-16 36-36 36h-54M206 396h-54c-20 0-36-16-36-36v-54" fill="none" stroke="#FFF" stroke-width="28" stroke-linecap="round"/>
  <circle cx="256" cy="256" r="82" fill="#11102A" stroke="#FFF" stroke-width="18"/>
  <circle cx="256" cy="256" r="48" fill="url(#lens)"/>
  <circle cx="238" cy="237" r="15" fill="#FFF" fill-opacity=".74"/>
  <path d="M136 136h42v42h-42zM334 136h42v42h-42zM136 334h42v42h-42zM334 334h18v18h-18zM358 358h18v18h-18z" fill="#FFF"/>
</svg>
